<svg width="24" height="24" viewBox="0 0 24 24" fill="none" xmlns="http://www.w3.org/2000/svg"><path d="M0 19.52v-.024c.038-.028.075-.057.11-.09 2.434-2.434 4.868-4.87 7.3-7.305.031-.03.061-.064.095-.1-.03-.032-.053-.06-.078-.085L.094 4.576A.755.755 0 000 4.506v-.048a.804.804 0 00.094-.07L4.384.094A.809.809 0 004.452 0h.05a.78.78 0 00.08.102C7.015 2.541 9.45 4.98 11.886 7.417c.03.03.063.06.1.095.035-.032.065-.058.093-.086L19.402.093c.026-.03.05-.06.072-.093h.024L24 4.51l-7.53 7.531 7.475 7.473-4.467 4.472-7.505-7.496L4.47 24c-.154-.157-.304-.311-.457-.464L0 19.521z" fill="#09202D"/></svg>