<svg width="16" height="16" viewBox="0 0 16 16" fill="none" xmlns="http://www.w3.org/2000/svg"><g clip-path="url(#clip0_234_1656)" fill="#646464"><path d="M13.264.728H2.741c-1.202 0-2.18.955-2.18 2.13v10.284c0 1.175.978 2.131 2.18 2.131h10.523c1.202 0 2.18-.956 2.18-2.13V2.857c0-1.175-.978-2.13-2.18-2.13zm-5.232 11.08c-2.164 0-3.925-1.721-3.925-3.836 0-2.115 1.76-3.835 3.925-3.835 2.163 0 3.924 1.72 3.924 3.835s-1.76 3.835-3.924 3.835zm4.36-6.82c-.721 0-1.308-.573-1.308-1.278 0-.704.587-1.278 1.308-1.278.721 0 1.308.574 1.308 1.278 0 .705-.587 1.279-1.308 1.279z"/><path d="M12.392 3.284a.431.431 0 00-.436.426c0 .235.196.426.436.426s.436-.19.436-.426a.431.431 0 00-.436-.426zM8.032 4.99c-1.683 0-3.053 1.338-3.053 2.982 0 1.645 1.37 2.983 3.053 2.983 1.683 0 3.052-1.338 3.052-2.983 0-1.644-1.37-2.983-3.052-2.983z"/></g><defs><clipPath id="clip0_234_1656"><path fill="#fff" transform="translate(.56 .728)" d="M0 0h14.884v14.546H0z"/></clipPath></defs></svg>